<?xml version="1.0" encoding="UTF-8" ?>
<!DOCTYPE svg PUBLIC "-//W3C//DTD SVG 1.1//EN" "http://www.w3.org/Graphics/SVG/1.1/DTD/svg11.dtd">
<svg width="600pt" height="133pt" viewBox="0 0 600 133" version="1.1" xmlns="http://www.w3.org/2000/svg">
<path fill="#ffffff" d=" M 0.00 0.00 L 600.00 0.00 L 600.00 133.00 L 0.00 133.00 L 0.00 0.00 Z" />
<path fill="#019c91" d=" M 25.16 13.05 C 38.45 13.04 51.73 13.04 65.02 13.04 C 65.02 18.61 65.03 24.17 65.01 29.73 C 58.45 31.94 51.92 34.25 45.39 36.55 C 38.60 34.35 31.91 31.88 25.15 29.60 C 25.17 24.08 25.15 18.57 25.16 13.05 Z" />
<path fill="#626365" d=" M 528.27 29.00 C 531.51 29.00 534.75 29.00 538.00 29.00 C 538.03 53.67 537.93 78.33 538.05 103.00 C 535.30 103.00 532.56 103.00 529.82 103.00 C 529.65 100.08 529.50 97.16 529.43 94.23 C 525.95 100.37 519.17 104.65 511.99 104.09 C 505.10 104.64 498.45 100.84 494.67 95.21 C 491.56 91.00 490.63 85.73 489.47 80.75 C 489.35 90.16 483.21 99.18 474.33 102.43 C 469.81 104.43 464.75 104.18 459.93 103.88 C 452.09 102.79 445.03 97.31 442.14 89.92 C 438.22 80.20 439.24 68.19 445.84 59.85 C 455.15 48.49 475.13 48.20 484.29 59.91 C 487.63 63.89 488.93 69.05 489.85 74.05 C 491.14 67.39 493.60 60.54 499.11 56.19 C 507.36 48.96 521.90 49.45 528.38 58.84 C 528.15 48.89 528.34 38.95 528.27 29.00 Z" />
<path fill="#019c91" d=" M 284.53 32.55 C 288.09 31.26 292.32 34.20 292.06 38.05 C 292.44 42.16 287.04 45.55 283.57 43.22 C 279.06 41.26 279.74 33.72 284.53 32.55 Z" />
<path fill="#019c91" d=" M 39.40 38.69 C 54.61 35.79 70.98 44.52 77.18 58.69 C 81.96 69.39 81.05 82.65 74.30 92.32 C 66.36 104.47 50.24 110.62 36.26 106.57 C 19.40 102.54 7.42 84.47 10.69 67.37 C 12.84 52.96 25.02 40.88 39.40 38.69 Z" />
<path fill="#019c91" d=" M 256.93 40.19 C 259.91 39.33 262.91 38.54 265.93 37.81 C 265.95 42.59 265.93 47.38 265.94 52.16 C 270.33 52.16 274.72 52.16 279.11 52.16 C 279.11 54.52 279.11 56.88 279.11 59.23 C 274.72 59.24 270.33 59.24 265.94 59.24 C 265.98 69.19 265.86 79.14 265.99 89.08 C 265.91 91.82 267.50 94.14 269.20 96.12 C 272.16 96.58 275.16 96.53 278.11 96.08 C 278.36 98.39 278.61 100.70 278.86 103.01 C 273.88 104.24 268.23 104.91 263.44 102.72 C 258.80 100.41 256.79 94.94 256.93 90.01 C 256.92 79.75 256.94 69.50 256.93 59.24 C 254.26 59.24 251.59 59.23 248.93 59.23 C 248.93 56.88 248.93 54.52 248.93 52.17 C 251.59 52.17 254.26 52.16 256.93 52.16 C 256.93 48.17 256.93 44.18 256.93 40.19 Z" />
<path fill="#019c91" d=" M 96.00 61.34 C 99.32 56.05 104.83 52.06 111.16 51.48 C 118.95 50.17 127.20 53.74 131.51 60.38 C 137.61 69.88 137.79 82.64 132.59 92.58 C 127.65 102.68 114.54 106.84 104.39 102.56 C 101.33 101.33 99.09 98.82 96.97 96.40 C 97.13 105.59 97.01 114.78 97.04 123.97 C 94.03 123.97 91.02 123.97 88.00 123.97 C 87.70 100.09 88.71 76.18 87.28 52.33 C 90.15 52.32 93.03 52.32 95.90 52.32 C 95.98 55.32 96.04 58.33 96.00 61.34 Z" />
<path fill="#019c91" d=" M 150.41 53.29 C 158.32 49.79 168.78 50.46 174.94 57.02 C 180.56 62.94 182.04 71.64 181.07 79.51 C 169.06 79.49 157.04 79.48 145.03 79.51 C 145.46 84.93 147.11 90.91 151.96 94.01 C 159.41 98.79 169.00 97.36 176.87 94.46 C 177.41 96.68 177.96 98.90 178.48 101.13 C 171.39 104.14 163.55 104.49 155.97 103.78 C 148.12 102.61 140.90 97.28 138.20 89.70 C 135.87 84.12 136.31 77.93 136.91 72.06 C 138.11 64.18 142.94 56.55 150.41 53.29 Z" />
<path fill="#019c91" d=" M 193.01 62.68 C 195.71 55.84 202.36 49.99 210.14 51.33 C 210.14 54.23 210.14 57.13 210.14 60.04 C 206.53 59.86 202.54 60.03 199.76 62.66 C 195.23 66.30 194.27 72.45 194.00 77.91 C 193.97 86.27 194.02 94.64 194.00 103.00 C 191.00 103.00 187.99 103.00 184.99 103.00 C 184.82 86.11 185.34 69.20 184.71 52.31 C 187.47 52.32 190.22 52.32 192.98 52.35 C 193.00 55.79 192.98 59.24 193.01 62.68 Z" />
<path fill="#019c91" d=" M 211.32 55.72 C 217.18 52.24 224.16 50.75 230.93 51.36 C 235.64 51.78 240.52 53.60 243.44 57.49 C 246.47 61.30 247.39 66.28 247.51 71.04 C 247.70 81.69 247.12 92.38 248.18 103.00 C 245.49 103.00 242.81 103.00 240.13 103.00 C 239.74 100.96 239.33 98.93 238.92 96.90 C 233.26 104.24 222.06 106.44 214.08 101.84 C 207.76 98.12 206.29 89.51 208.86 83.07 C 210.64 78.76 214.55 75.70 218.76 73.96 C 224.95 71.44 231.70 70.69 238.34 70.89 C 238.22 67.00 237.77 62.31 234.09 60.08 C 227.60 56.01 219.44 58.62 213.23 61.95 C 212.66 59.85 211.99 57.79 211.32 55.72 Z" />
<path fill="#019c91" d=" M 315.46 51.65 C 324.72 49.93 335.25 53.34 340.44 61.52 C 347.00 71.94 346.44 86.85 338.30 96.27 C 331.66 103.83 320.45 105.71 311.10 103.00 C 302.91 100.45 296.97 92.97 295.46 84.65 C 294.27 77.28 294.79 69.25 298.80 62.76 C 302.24 56.73 308.67 52.72 315.46 51.65 Z" />
<path fill="#019c91" d=" M 357.02 60.58 C 362.50 51.13 376.43 48.14 385.08 54.96 C 389.83 58.73 391.89 65.05 392.01 70.95 C 392.00 81.63 392.00 92.31 392.00 103.00 C 388.93 103.00 385.87 103.00 382.81 103.00 C 382.78 93.32 382.83 83.63 382.79 73.95 C 382.73 68.88 381.51 62.90 376.64 60.29 C 368.98 55.97 358.62 62.19 358.05 70.76 C 357.85 81.50 358.04 92.25 357.98 103.00 C 354.83 103.00 351.68 103.00 348.54 103.00 C 348.38 86.11 348.96 69.20 348.06 52.32 C 350.87 52.32 353.69 52.32 356.51 52.33 C 356.76 55.07 356.90 57.83 357.02 60.58 Z" />
<path fill="#626365" d=" M 555.48 53.37 C 563.19 49.89 573.21 50.42 579.61 56.33 C 585.62 62.29 587.34 71.32 586.46 79.48 C 574.40 79.52 562.34 79.46 550.28 79.52 C 550.74 84.86 552.28 90.76 557.05 93.88 C 564.45 98.86 574.14 97.32 582.07 94.52 C 582.65 96.70 583.21 98.89 583.78 101.07 C 578.17 103.46 572.06 104.31 565.99 104.04 C 558.68 104.36 551.13 101.26 546.66 95.36 C 541.93 89.37 540.91 81.27 541.83 73.88 C 542.75 65.43 547.57 57.02 555.48 53.37 Z" />
<path fill="#019c91" d=" M 281.79 52.32 C 284.87 52.32 287.95 52.32 291.03 52.32 C 291.04 69.21 291.03 86.11 291.03 103.00 C 287.95 103.00 284.86 103.00 281.79 103.00 C 281.79 86.11 281.78 69.21 281.79 52.32 Z" />
<path fill="#626365" d=" M 408.36 58.43 C 416.95 50.45 430.35 49.56 440.86 53.92 C 440.11 56.29 439.42 58.68 438.79 61.08 C 433.44 58.52 427.11 58.23 421.44 59.72 C 406.67 64.65 405.82 88.91 419.90 95.20 C 426.00 98.19 432.97 96.83 438.99 94.36 C 439.54 96.71 440.07 99.07 440.61 101.43 C 434.16 104.13 427.04 104.54 420.18 103.72 C 411.81 102.39 404.50 96.16 401.95 88.08 C 398.79 78.04 400.51 65.90 408.36 58.43 Z" />
<path fill="#ffffff" d=" M 38.90 66.55 C 41.11 62.41 43.11 58.16 45.28 54.00 C 47.32 58.18 49.42 62.34 51.43 66.53 C 56.06 67.06 60.65 67.95 65.31 68.32 C 62.00 71.72 58.50 74.93 55.24 78.37 C 56.16 82.90 56.87 87.46 57.69 92.01 C 53.62 89.90 49.65 87.61 45.49 85.71 C 41.00 87.20 37.08 90.01 32.79 91.98 C 33.56 87.36 34.49 82.76 35.13 78.12 C 31.69 74.92 28.30 71.68 25.01 68.33 C 29.67 67.97 34.26 67.09 38.90 66.55 Z" />
<path fill="#ffffff" d=" M 150.58 61.51 C 155.54 56.38 165.06 56.63 169.37 62.46 C 171.73 65.40 172.23 69.26 172.43 72.90 C 163.34 72.92 154.25 72.94 145.15 72.89 C 146.04 68.75 147.38 64.47 150.58 61.51 Z" />
<path fill="#ffffff" d=" M 307.79 64.86 C 311.37 59.07 319.12 56.54 325.42 59.15 C 332.37 62.50 335.45 70.69 335.11 78.03 C 335.36 84.79 332.39 92.00 326.42 95.55 C 320.09 99.30 311.28 96.68 307.68 90.36 C 303.02 82.73 303.16 72.47 307.79 64.86 Z" />
<path fill="#ffffff" d=" M 462.17 58.44 C 465.94 57.28 469.98 58.81 473.18 60.83 C 478.56 65.06 480.53 72.36 480.16 78.96 C 480.15 85.61 476.93 92.62 470.90 95.84 C 465.29 98.78 457.84 97.07 453.96 92.08 C 448.39 85.01 448.01 74.76 451.74 66.75 C 453.70 62.56 457.61 59.36 462.17 58.44 Z" />
<path fill="#ffffff" d=" M 561.63 57.99 C 564.94 57.91 568.47 57.68 571.38 59.57 C 576.17 62.12 577.33 67.95 577.88 72.87 C 568.76 72.96 559.64 72.90 550.52 72.91 C 551.26 66.40 555.21 60.13 561.63 57.99 Z" />
<path fill="#ffffff" d=" M 107.03 59.46 C 111.20 58.46 116.20 58.34 119.73 61.19 C 125.05 64.97 126.73 71.86 127.00 78.04 C 126.47 84.51 124.58 92.09 118.30 95.31 C 111.83 99.03 102.82 96.53 99.09 90.09 C 96.15 85.58 97.20 80.00 97.03 74.93 C 96.80 68.40 100.72 61.67 107.03 59.46 Z" />
<path fill="#ffffff" d=" M 509.29 59.50 C 512.44 58.49 515.89 58.63 519.12 59.24 C 523.98 61.01 527.94 65.69 528.16 70.97 C 528.37 75.32 528.37 79.69 528.17 84.03 C 527.83 91.47 520.48 97.45 513.18 96.84 C 509.43 96.32 505.62 94.73 503.33 91.58 C 499.20 85.96 498.64 78.44 500.00 71.78 C 501.04 66.59 504.30 61.60 509.29 59.50 Z" />
<path fill="#ffffff" d=" M 224.10 79.12 C 228.74 77.55 233.68 77.03 238.55 77.02 C 238.33 81.88 239.57 87.31 236.66 91.62 C 233.61 96.49 227.01 98.66 221.67 96.59 C 218.34 95.19 216.59 91.45 216.97 87.95 C 217.00 83.77 220.32 80.40 224.10 79.12 Z" />
</svg>
